<?xml version="1.0" encoding="utf-8"?>
<svg id="master-artboard" viewBox="0 0 1400 980" version="1.1" xmlns="http://www.w3.org/2000/svg" x="0px" y="0px" style="enable-background:new 0 0 1400 980;" width="1400px" height="980px"><defs><path id="text-path-0" d="M 472.375 461.51092529296875 C 472.37500000000006 417.9239118259877 786.9371744791667 390.6820284091246 1038.5869140625 412.4755351426151 C 1155.3779646521202 422.5899368171436 1220.052375783238 442.63440657839334 1227.32421875 461.51092529296875 C 1244.3106271607023 505.60499565860323 1042.5644533575687 536.2145210017801 661.1123046875001 510.5463154433224 C 544.1485798789307 502.67574532072354 472.375 481.7397286420257 472.375 461.51092529296875" style="fill: none; stroke: red; stroke-width: 2;"/><style id="ee-google-fonts">@import url(https://fonts.googleapis.com/css?family=Anton:400);</style></defs><path d="M 638.7228393554688 414.42474365234375 L 629.2771606445312 305.9351501464844 L 653.2464599609375 303.8482666015625 L 660.84814453125 391.157958984375 L 685.5048828125 389.0111999511719 L 687.348876953125 410.1910705566406 L 638.7228393554688 414.42474365234375 ZM 686.8141479492188 381.3083801269531 L 682.2916870117188 301.38623046875 L 705.6243896484375 300.06591796875 L 710.027099609375 377.8714599609375 C 710.0323486328125 377.9646301269531 710.0413818359375 378.1243896484375 710.05419921875 378.3506774902344 C 710.1212158203125 379.53546142578125 710.187255859375 380.466552734375 710.2523193359375 381.1439514160156 C 710.3110961914062 381.8283996582031 710.4771728515625 382.7571716308594 710.7505493164062 383.9302673339844 C 711.0234985351562 385.0967102050781 711.3724365234375 386.01177978515625 711.7973022460938 386.6755065917969 C 712.2221069335938 387.3392333984375 712.8352661132812 387.9088439941406 713.6367797851562 388.3843078613281 C 714.4385986328125 388.866455078125 715.4086303710938 389.0753173828125 716.5468139648438 389.01092529296875 C 717.5052490234375 388.9566650390625 718.3282470703125 388.7498474121094 719.0156860351562 388.39044189453125 C 719.7031860351562 388.0310363769531 720.2312622070312 387.5103759765625 720.5999755859375 386.82843017578125 C 720.975341796875 386.1461486816406 721.2688598632812 385.4918518066406 721.48046875 384.8655700683594 C 721.6984252929688 384.23223876953125 721.824951171875 383.4004211425781 721.860107421875 382.3701171875 C 721.8890380859375 381.34686279296875 721.9013671875 380.56158447265625 721.8970947265625 380.0142822265625 C 721.8861694335938 379.46734619140625 721.852294921875 378.6913757324219 721.79541015625 377.6863098144531 C 721.7825927734375 377.4599914550781 721.7735595703125 377.3002624511719 721.768310546875 377.2070617675781 L 717.3656005859375 299.40155029296875 L 740.708251953125 298.0806884765625 L 745.230712890625 378.0028381347656 C 745.7869873046875 387.8337707519531 743.8563232421875 395.4283142089844 739.4386596679688 400.78643798828125 C 735.0147094726562 406.151611328125 727.8193359375 409.0928039550781 717.8526611328125 409.61004638671875 C 707.7114868164062 410.2306213378906 700.1404418945312 408.125 695.1395263671875 403.29315185546875 C 690.1455688476562 398.4675598144531 687.3704833984375 391.1393127441406 686.8141479492188 381.3083801269531 ZM 810.3956298828125 358.04962158203125 L 810.9747924804688 378.6114501953125 C 811.24169921875 388.08770751953125 808.7521362304688 395.1239013671875 803.5061645507812 399.7200927734375 C 798.2532958984375 404.309814453125 790.7987670898438 406.74066162109375 781.142578125 407.01263427734375 C 772.579345703125 407.2538146972656 765.539794921875 405.0011291503906 760.0239868164062 400.2545471191406 C 754.5081176757812 395.5079650878906 751.6232299804688 388.62646484375 751.3692626953125 379.6100158691406 L 749.9468994140625 329.1100769042969 C 749.642822265625 318.3143310546875 751.7978515625 310.17376708984375 756.411865234375 304.6883544921875 C 761.0191040039062 299.19647216796875 768.4006958007812 296.3074951171875 778.556640625 296.0214538574219 C 782.7083129882812 295.9045104980469 786.55126953125 296.309814453125 790.08544921875 297.2373352050781 C 793.61962890625 298.16485595703125 796.7711181640625 299.5933532714844 799.5398559570312 301.5228576660156 C 802.30859375 303.45233154296875 804.5118408203125 306.02130126953125 806.1494750976562 309.22979736328125 C 807.7939453125 312.44476318359375 808.6759033203125 316.1714172363281 808.7952880859375 320.4097595214844 L 809.3361206054688 339.61212158203125 L 785.5555419921875 340.28192138671875 L 785.1994018554688 327.636962890625 C 785.0160522460938 321.1261901855469 783.0084228515625 317.9247741699219 779.1766357421875 318.03271484375 C 776.9041748046875 318.0967102050781 775.421630859375 318.85540771484375 774.7289428710938 320.308837890625 C 774.0429077148438 321.7620544433594 773.73583984375 323.76483154296875 773.8077392578125 326.3171691894531 L 775.2571411132812 377.7767333984375 C 775.3200073242188 380.0091857910156 775.8876953125 381.9306335449219 776.9600830078125 383.54107666015625 C 778.0325317382812 385.1515197753906 779.408447265625 385.93310546875 781.0877685546875 385.88580322265625 C 782.6405029296875 385.8420715332031 783.9696044921875 385.2010498046875 785.0751953125 383.9627685546875 C 786.1806030273438 382.71783447265625 786.6897583007812 380.5492858886719 786.6026611328125 377.4571838378906 L 786.0753173828125 358.734619140625 L 810.3956298828125 358.04962158203125 ZM 851.5421142578125 295.8948974609375 L 875.7420654296875 295.8359680175781 L 862.3934326171875 345.7086181640625 L 878.80712890625 404.7288513183594 L 853.8572387695312 404.7895812988281 L 840.5988159179688 352.05169677734375 L 840.727294921875 404.821533203125 L 816.807373046875 404.8797607421875 L 816.542236328125 295.9801025390625 L 840.3321533203125 295.92218017578125 L 840.4381713867188 339.4720458984375 L 851.5421142578125 295.8948974609375 ZM 879.0935668945312 404.8699035644531 L 881.3685913085938 295.9936828613281 L 929.4780883789062 296.99896240234375 L 929.033935546875 318.25433349609375 L 905.1192016601562 317.7546081542969 L 904.7592163085938 334.9808349609375 L 927.4442749023438 335.4548645019531 L 927.0057373046875 356.4403076171875 L 904.3207397460938 355.9662780761719 L 903.2882690429688 405.37548828125 L 879.0935668945312 404.8699035644531 ZM 930.6082153320312 406.0234069824219 L 935.2896118164062 297.2240905761719 L 959.327392578125 298.2583923339844 L 955.5598754882812 385.8173522949219 L 980.2869873046875 386.8813171386719 L 979.373046875 408.1216735839844 L 930.6082153320312 406.0234069824219 ZM 980.9849243164062 408.3481750488281 L 987.7349243164062 299.6575622558594 L 1010.9302368164062 301.0980529785156 L 1004.1802368164062 409.7886657714844 L 980.9849243164062 408.3481750488281 ZM 1041.435791015625 369.9730224609375 L 1030.0111083984375 411.7369079589844 L 1005.7010498046875 409.643798828125 L 1023.5342407226562 353.1352844238281 L 1017.7029418945312 301.374267578125 L 1041.1263427734375 303.3910217285156 L 1044.133056640625 340.9775085449219 L 1052.8428955078125 304.39984130859375 L 1076.3360595703125 306.422607421875 L 1061.742919921875 356.4250793457031 L 1069.584716796875 415.14422607421875 L 1045.3443603515625 413.05712890625 L 1041.435791015625 369.9730224609375 Z" transform="matrix(3.081636905670166, 0, 0, 3.081636905670166, -1928.000244140625, -656.0686645507812)" style="fill: rgb(234, 8, 5); white-space: pre; color: rgb(51, 51, 51);"/></svg>